<?xml version="1.0" encoding="UTF-8"?>
<svg id="Layer_1" xmlns="http://www.w3.org/2000/svg" version="1.1" viewBox="0 0 1072.22 608.92">
  <!-- Generator: Adobe Illustrator 30.5.1, SVG Export Plug-In . SVG Version: 2.1.4 Build 3)  -->
  <defs>
    <style>
      .st0 {
        fill: #ef3a42;
      }

      .st1 {
        fill: #f5333f;
      }
    </style>
  </defs>
  <path class="st0" d="M304.23,297.82c0-87.74,30.06-167.36,78.91-226.23-11.56-22.55-23.11-45.1-34.68-67.65-.62-1.21-1.27-2.4-2.09-3.94-.66,1.23-1.11,2.02-1.52,2.83-14.07,27.43-28.14,54.87-42.21,82.32-5.44,10.6-10.83,21.21-16.32,31.78-4.19,8.09-9.97,11.71-17.83,10.51-3.95-.6-7.94-1.97-11.51-3.79-10.69-5.47-21.19-11.32-31.76-17.03-4.71-2.54-9.41-5.09-14.37-7.78.04.92,0,1.44.1,1.92,1.67,9.31,3.33,18.63,5.02,27.94,5.04,27.82,10.08,55.65,15.12,83.49,4.03,22.32,8.09,44.63,12.07,66.98,1.09,6.11,2.07,12.24.77,18.5-1.57,7.53-6.93,11.44-14.12,9.91-4.89-1.04-8.65-3.9-11.84-7.63-20.53-24.05-41.06-48.08-61.59-72.12-5.15-6.03-10.31-12.05-15.65-18.29-.35,1.12-.63,1.86-.83,2.63-3.74,13.73-7.46,27.48-11.24,41.2-2.65,9.61-9.77,13.95-19.5,11.81-25.43-5.58-50.84-11.23-76.26-16.85-6.03-1.32-12.06-2.59-18.39-3.95.18.76.25,1.13.35,1.49,5.08,19.37,10.2,38.74,15.23,58.13,4.73,18.21,9.47,36.41,13.98,54.67,2.17,8.78-.26,13.86-7.39,17.3-8.43,4.05-16.85,8.15-25.27,12.24-3.72,1.81-7.44,3.64-11.39,5.59.98.9,1.61,1.55,2.31,2.14,43.83,37.25,87.65,74.49,131.48,111.73,10.81,9.18,21.68,18.27,32.37,27.58,7.73,6.73,10.11,15.26,7.35,25.13-2.05,7.34-4.26,14.65-6.39,21.96-2.54,8.74-5.08,17.48-7.71,26.58,15.74-1.86,31.09-3.65,46.43-5.51,19.31-2.32,38.6-4.73,57.91-7.08,20.01-2.43,40.04-4.78,60.04-7.26l47.9.35c16.05,2.15,32.15,3.87,48.22,5.81,16.07,1.94,32.13,3.94,48.21,5.89,5.84.71,11.69,1.41,17.53,2.12-106.18-47.87-181.41-166.52-181.41-305.42"/>
  <path class="st1" d="M675.87,110.7c29.25-14.67,62.16-23.13,97.12-23.13s67.86,8.46,97.11,23.13h130.69C945.91,46.23,864.29,5.22,772.99,5.22s-172.92,41.02-227.81,105.48h130.69Z"/>
  <path class="st1" d="M1033.9,158.18h-101.01c35.39,38.62,57.18,89.94,57.18,146.46,0,119.88-97.19,217.08-217.08,217.08s-217.08-97.19-217.08-217.08c0-56.52,21.78-107.84,57.19-146.46h-101.01c-24.31,43.27-38.32,93.1-38.32,146.27,0,165.26,133.97,299.23,299.23,299.23s299.23-133.97,299.23-299.23c0-53.17-14.01-103-38.32-146.27"/>
  <path class="st1" d="M488.56,110.7c38.89-51.47,91.23-90.45,148.67-105.06-88.37-1.89-168.16,39.49-221.42,105.06h72.75Z"/>
  <path class="st1" d="M420.62,292.07c2.33-46.41,16.12-92.45,37.96-133.89h-74.29c-21.51,40.17-34.49,85.92-35.89,134.59-4.83,166.73,125.84,312.8,288.95,310.91-115.17-39.41-223.83-170.07-216.73-311.61"/>
</svg>