<?xml version="1.0" encoding="UTF-8"?>
<svg xmlns="http://www.w3.org/2000/svg" xmlns:xlink="http://www.w3.org/1999/xlink" version="1.1" viewBox="0 0 252 144">
  <!-- Generator: Adobe Illustrator 30.5.1, SVG Export Plug-In . SVG Version: 2.1.4 Build 3)  -->
  <defs>
    <style>
      .st0 {
        fill: #262626;
      }

      .st1 {
        fill: url(#linear-gradient2);
      }

      .st2 {
        fill: url(#linear-gradient1);
      }

      .st3 {
        fill: url(#linear-gradient9);
      }

      .st4 {
        fill: url(#linear-gradient3);
      }

      .st5 {
        fill: url(#linear-gradient6);
      }

      .st6 {
        fill: url(#linear-gradient8);
      }

      .st7 {
        fill: url(#linear-gradient7);
      }

      .st8 {
        fill: url(#linear-gradient5);
      }

      .st9 {
        fill: url(#linear-gradient4);
      }

      .st10 {
        fill: url(#linear-gradient11);
      }

      .st11 {
        fill: url(#linear-gradient10);
      }

      .st12 {
        fill: url(#linear-gradient);
      }

      .st13 {
        fill: #ed1c24;
      }

      .st14, .st15 {
        fill: #fff;
      }

      .st15 {
        stroke: #231f20;
        stroke-miterlimit: 10;
        stroke-width: .5px;
      }

      .st16 {
        clip-path: url(#clippath);
      }
    </style>
    <clipPath id="clippath">
      <rect class="st14" width="252" height="144"/>
    </clipPath>
    <linearGradient id="linear-gradient" x1="70.65" y1="26.64" x2="80.76" y2="26.64" gradientUnits="userSpaceOnUse">
      <stop offset="0" stop-color="#000"/>
      <stop offset="1" stop-color="#000"/>
    </linearGradient>
    <linearGradient id="linear-gradient1" x1="94.29" y1="24.9" x2="106.76" y2="24.9" xlink:href="#linear-gradient"/>
    <linearGradient id="linear-gradient2" x1="118.09" y1="26.65" x2="138.96" y2="26.65" xlink:href="#linear-gradient"/>
    <linearGradient id="linear-gradient3" x1="87.62" y1="38.07" x2="99.67" y2="38.07" xlink:href="#linear-gradient"/>
    <linearGradient id="linear-gradient4" x1="70.64" y1="32.45" x2="151.66" y2="32.45" xlink:href="#linear-gradient"/>
    <linearGradient id="linear-gradient5" x1="101.26" y1="26.65" x2="121.02" y2="26.65" xlink:href="#linear-gradient"/>
    <linearGradient id="linear-gradient6" x1="108.54" y1="38.05" x2="119.9" y2="38.05" xlink:href="#linear-gradient"/>
    <linearGradient id="linear-gradient7" x1="77.54" y1="24.9" x2="101.03" y2="24.9" xlink:href="#linear-gradient"/>
    <linearGradient id="linear-gradient8" x1="137.17" y1="24.9" x2="160.65" y2="24.9" xlink:href="#linear-gradient"/>
    <linearGradient id="linear-gradient9" x1="98.31" y1="37.05" x2="111.85" y2="37.05" xlink:href="#linear-gradient"/>
    <linearGradient id="linear-gradient10" x1="78.35" y1="38.05" x2="89.43" y2="38.05" xlink:href="#linear-gradient"/>
    <linearGradient id="linear-gradient11" x1="65.19" y1="36.94" x2="81.41" y2="36.94" xlink:href="#linear-gradient"/>
  </defs>
  <g id="background">
    <g>
      <rect class="st14" width="252" height="144"/>
      <g class="st16">
        <rect class="st14" width="252" height="144"/>
      </g>
    </g>
  </g>
  <g id="content">
    <g>
      <g>
        <path d="M20.08,79.61h-1.5l-2.94-5.11v5.11h-1.4v-7.2h1.58l2.87,5.02v-5.02h1.4v7.2Z"/>
        <path d="M21.57,74.87c.37-.47,1-.7,1.89-.7.58,0,1.1.12,1.55.35.45.23.68.67.68,1.31v2.44c0,.17,0,.37,0,.62,0,.18.04.31.08.37.05.06.11.12.21.16v.21h-1.51c-.04-.11-.07-.21-.09-.3-.02-.09-.03-.2-.04-.32-.19.21-.41.39-.66.53-.3.17-.64.26-1.02.26-.48,0-.88-.14-1.19-.41-.31-.27-.47-.67-.47-1.17,0-.65.25-1.13.76-1.42.28-.16.68-.27,1.22-.34l.47-.06c.26-.03.44-.07.55-.12.2-.08.3-.22.3-.4,0-.22-.08-.37-.23-.45s-.37-.12-.67-.12c-.33,0-.56.08-.7.24-.1.12-.16.28-.2.49h-1.34c.03-.47.16-.85.39-1.15ZM22.61,78.61c.13.11.29.16.48.16.3,0,.58-.09.83-.26s.38-.5.39-.96v-.52c-.09.05-.18.1-.27.13s-.21.07-.37.1l-.31.06c-.29.05-.5.12-.63.19-.21.13-.32.32-.32.59,0,.24.07.41.2.51Z"/>
        <path d="M29.92,75.75c-.12-.26-.35-.39-.69-.39-.4,0-.66.13-.8.39-.07.15-.11.36-.11.65v3.2h-1.41v-5.31h1.35v.78c.17-.28.34-.47.49-.59.27-.21.62-.31,1.05-.31.41,0,.74.09.99.27.2.17.35.38.46.64.18-.31.41-.54.68-.69.29-.15.61-.22.96-.22.23,0,.47.04.69.14.23.09.43.25.62.48.15.19.25.41.3.68.03.18.05.44.05.79v3.35h-1.44v-3.39c0-.2-.03-.37-.1-.5-.12-.25-.35-.37-.68-.37-.38,0-.65.16-.8.48-.07.17-.11.37-.11.61v3.17h-1.4v-3.17c0-.32-.03-.55-.1-.69Z"/>
        <path d="M40.38,78.05c-.04.32-.2.64-.49.96-.46.52-1.09.78-1.91.78-.68,0-1.27-.22-1.79-.65-.52-.44-.78-1.15-.78-2.13,0-.92.23-1.63.7-2.12.47-.49,1.07-.74,1.82-.74.44,0,.84.08,1.2.25s.65.43.88.79c.21.32.34.68.41,1.1.04.24.05.6.04,1.05h-3.64c.02.53.19.91.5,1.12.19.13.42.2.69.2.29,0,.52-.08.7-.24.1-.09.18-.21.26-.37h1.42ZM39,76.42c-.02-.37-.13-.65-.33-.84s-.45-.29-.74-.29c-.32,0-.57.1-.75.3-.18.2-.29.47-.33.82h2.16Z"/>
        <path d="M48.57,79.61v-3.21h-2.81v3.21h-1.49v-7.2h1.49v2.74h2.81v-2.74h1.49v7.2h-1.49Z"/>
        <path d="M55.94,78.05c-.04.32-.2.64-.49.96-.46.52-1.09.78-1.91.78-.68,0-1.27-.22-1.79-.65-.52-.44-.78-1.15-.78-2.13,0-.92.23-1.63.7-2.12.47-.49,1.07-.74,1.82-.74.44,0,.84.08,1.2.25s.65.43.88.79c.21.32.34.68.41,1.1.04.24.05.6.04,1.05h-3.64c.02.53.19.91.5,1.12.19.13.42.2.69.2.29,0,.52-.08.7-.24.1-.09.18-.21.26-.37h1.42ZM54.56,76.42c-.02-.37-.13-.65-.33-.84s-.45-.29-.74-.29c-.32,0-.57.1-.75.3-.18.2-.29.47-.33.82h2.16Z"/>
        <path d="M59.62,75.57c-.56,0-.94.18-1.13.55-.11.21-.16.52-.16.95v2.54h-1.4v-5.32h1.33v.93c.21-.36.4-.6.56-.73.26-.22.6-.33,1.02-.33.03,0,.05,0,.07,0,.02,0,.06,0,.12,0v1.43c-.09,0-.17-.02-.23-.02-.07,0-.12,0-.17,0Z"/>
        <path d="M65.39,78.05c-.04.32-.2.64-.49.96-.46.52-1.09.78-1.91.78-.68,0-1.27-.22-1.79-.65-.52-.44-.78-1.15-.78-2.13,0-.92.23-1.63.7-2.12.47-.49,1.07-.74,1.82-.74.44,0,.84.08,1.2.25s.65.43.88.79c.21.32.34.68.41,1.1.04.24.05.6.04,1.05h-3.64c.02.53.19.91.5,1.12.19.13.42.2.69.2.29,0,.52-.08.7-.24.1-.09.18-.21.26-.37h1.42ZM64.02,76.42c-.02-.37-.13-.65-.33-.84s-.45-.29-.74-.29c-.32,0-.57.1-.75.3-.18.2-.29.47-.33.82h2.16Z"/>
      </g>
      <g>
        <path class="st0" d="M17.68,84.07v.6h-1.69v4.42h-.69v-4.42h-1.69v-.6h4.07Z"/>
        <path class="st0" d="M18.23,84.07h.63v.7h-.63v-.7ZM18.23,85.45h.63v3.64h-.63v-3.64Z"/>
        <path class="st0" d="M19.9,84.41h.62v1.02h.58v.5h-.58v2.39c0,.13.04.21.13.26.05.03.13.04.24.04.03,0,.06,0,.1,0,.03,0,.07,0,.12-.01v.49c-.07.02-.14.04-.22.04-.08,0-.16.01-.25.01-.29,0-.48-.07-.58-.22-.1-.15-.15-.34-.15-.57v-2.42h-.5v-.5h.5v-1.02Z"/>
        <path class="st0" d="M21.74,84.07h.62v5.02h-.62v-5.02Z"/>
        <path class="st0" d="M25.54,85.53c.24.12.43.28.55.47.12.18.2.4.24.65.04.17.05.44.05.81h-2.66c.01.37.1.67.26.9.16.22.41.34.76.34.32,0,.57-.11.76-.32.11-.12.18-.27.23-.43h.6c-.02.13-.07.28-.16.45-.09.17-.19.3-.3.41-.19.18-.42.31-.69.37-.15.04-.31.05-.5.05-.45,0-.84-.17-1.15-.5-.31-.33-.47-.8-.47-1.39s.16-1.07.48-1.43.73-.55,1.24-.55c.26,0,.51.06.75.18ZM25.76,86.97c-.02-.27-.08-.48-.17-.64-.17-.3-.45-.44-.84-.44-.28,0-.52.1-.71.31-.19.2-.29.46-.3.78h2.02Z"/>
        <path class="st0" d="M29.22,84.07h.69v2.08h2.58v-2.08h.69v5.02h-.69v-2.35h-2.58v2.35h-.69v-5.02Z"/>
        <path class="st0" d="M36.44,85.53c.24.12.43.28.55.47.12.18.2.4.24.65.04.17.05.44.05.81h-2.66c.01.37.1.67.26.9.16.22.41.34.76.34.32,0,.57-.11.76-.32.11-.12.18-.27.23-.43h.6c-.02.13-.07.28-.16.45-.09.17-.19.3-.3.41-.19.18-.42.31-.69.37-.15.04-.31.05-.5.05-.45,0-.84-.17-1.15-.5-.31-.33-.47-.8-.47-1.39s.16-1.07.48-1.43.73-.55,1.24-.55c.26,0,.51.06.75.18ZM36.66,86.97c-.02-.27-.08-.48-.17-.64-.17-.3-.45-.44-.84-.44-.28,0-.52.1-.71.31-.19.2-.29.46-.3.78h2.02Z"/>
        <path class="st0" d="M38.08,85.43h.58v.63c.05-.12.17-.27.35-.45.19-.18.4-.27.65-.27.01,0,.03,0,.06,0,.03,0,.07,0,.14.01v.65s-.07-.01-.1-.01c-.03,0-.06,0-.1,0-.31,0-.55.1-.71.3s-.25.43-.25.69v2.11h-.62v-3.66Z"/>
        <path class="st0" d="M42.66,85.53c.24.12.43.28.55.47.12.18.2.4.24.65.04.17.05.44.05.81h-2.66c.01.37.1.67.26.9.16.22.41.34.76.34.32,0,.57-.11.76-.32.11-.12.18-.27.23-.43h.6c-.02.13-.07.28-.16.45-.09.17-.19.3-.3.41-.19.18-.42.31-.69.37-.15.04-.31.05-.5.05-.45,0-.84-.17-1.15-.5-.31-.33-.47-.8-.47-1.39s.16-1.07.48-1.43.73-.55,1.24-.55c.26,0,.51.06.75.18ZM42.88,86.97c-.02-.27-.08-.48-.17-.64-.17-.3-.45-.44-.84-.44-.28,0-.52.1-.71.31-.19.2-.29.46-.3.78h2.02Z"/>
      </g>
      <g>
        <path class="st0" d="M16.15,101.93c.24.12.43.28.55.47.12.18.2.4.24.65.04.17.05.44.05.81h-2.66c.01.37.1.67.26.9.16.22.41.34.76.34.32,0,.57-.11.76-.32.11-.12.18-.27.23-.43h.6c-.02.13-.07.28-.16.45-.09.17-.19.3-.3.41-.19.18-.42.31-.69.37-.15.04-.31.05-.5.05-.45,0-.84-.17-1.15-.5-.31-.33-.47-.8-.47-1.39s.16-1.07.48-1.43.73-.55,1.24-.55c.26,0,.51.06.75.18ZM16.37,103.37c-.02-.27-.08-.48-.17-.64-.17-.3-.45-.44-.84-.44-.28,0-.52.1-.71.31-.19.2-.29.46-.3.78h2.02Z"/>
        <path class="st0" d="M20.05,101.88h.71v.75h-.71v-.75ZM20.05,104.74h.71v.75h-.71v-.75Z"/>
        <path class="st0" d="M25.87,101.93c.24.12.43.28.55.47.12.18.2.4.24.65.04.17.05.44.05.81h-2.66c.01.37.1.67.26.9.16.22.41.34.76.34.32,0,.57-.11.76-.32.11-.12.18-.27.23-.43h.6c-.02.13-.07.28-.16.45-.09.17-.19.3-.3.41-.19.18-.42.31-.69.37-.15.04-.31.05-.5.05-.45,0-.84-.17-1.15-.5-.31-.33-.47-.8-.47-1.39s.16-1.07.48-1.43.73-.55,1.24-.55c.26,0,.51.06.75.18ZM26.09,103.37c-.02-.27-.08-.48-.17-.64-.17-.3-.45-.44-.84-.44-.28,0-.52.1-.71.31-.19.2-.29.46-.3.78h2.02Z"/>
        <path class="st0" d="M27.5,101.83h.61v.52c.15-.18.28-.31.4-.39.2-.14.43-.21.69-.21.29,0,.53.07.7.21.1.08.19.2.27.36.14-.2.3-.34.48-.44s.39-.14.62-.14c.49,0,.83.18,1,.53.1.19.14.45.14.77v2.44h-.64v-2.54c0-.24-.06-.41-.18-.5-.12-.09-.27-.14-.45-.14-.24,0-.45.08-.62.24-.17.16-.26.43-.26.81v2.13h-.63v-2.39c0-.25-.03-.43-.09-.54-.09-.17-.27-.26-.52-.26-.23,0-.44.09-.63.27-.19.18-.29.51-.29.98v1.94h-.62v-3.66Z"/>
        <path class="st0" d="M35.3,103.27c.14-.02.24-.08.28-.18.03-.05.04-.13.04-.24,0-.21-.07-.36-.22-.46-.15-.09-.36-.14-.64-.14-.32,0-.55.09-.68.26-.07.1-.12.24-.15.43h-.57c.01-.45.16-.77.44-.94.28-.18.61-.27.98-.27.43,0,.78.08,1.05.25.27.16.4.42.4.77v2.11c0,.06.01.12.04.15.03.04.08.06.17.06.03,0,.06,0,.09,0,.03,0,.07,0,.11-.02v.46c-.1.03-.17.04-.22.05s-.12,0-.21,0c-.21,0-.37-.07-.46-.22-.05-.08-.09-.19-.11-.34-.13.16-.31.31-.54.43-.23.12-.49.18-.78.18-.34,0-.62-.1-.83-.31-.22-.21-.32-.46-.32-.77,0-.34.11-.6.32-.79s.49-.3.83-.34l.98-.12ZM34,104.93c.13.1.28.15.46.15.22,0,.43-.05.63-.15.34-.17.51-.44.51-.82v-.5c-.08.05-.17.09-.29.12s-.23.05-.35.07l-.37.05c-.22.03-.39.08-.5.14-.19.11-.29.28-.29.51,0,.18.06.32.19.42Z"/>
        <path class="st0" d="M37.23,100.47h.63v.7h-.63v-.7ZM37.23,101.84h.63v3.64h-.63v-3.64Z"/>
        <path class="st0" d="M38.8,100.47h.62v5.02h-.62v-5.02Z"/>
        <path class="st0" d="M41.28,104.74c-.41-.48-.62-1.03-.62-1.65,0-.74.25-1.37.75-1.89.56-.58,1.3-.87,2.24-.87.81,0,1.45.21,1.91.62.44.39.65.89.65,1.51,0,.52-.16.96-.47,1.33-.31.37-.66.55-1.04.55-.23,0-.39-.05-.5-.16s-.16-.24-.16-.39c0-.03,0-.05,0-.08s.01-.06.02-.08c-.12.26-.27.45-.46.55s-.38.16-.57.16c-.28,0-.51-.1-.68-.3-.17-.2-.26-.46-.26-.78,0-.45.15-.85.45-1.2.3-.35.62-.52.96-.52.23,0,.42.07.58.2.15.13.23.3.24.48l.17-.57h.5l-.45,1.5c-.03.12-.06.21-.08.28-.02.07-.02.13-.02.19,0,.1.03.18.09.22.06.05.13.07.21.07.26,0,.49-.14.7-.41.21-.27.31-.63.31-1.06,0-.53-.18-.94-.55-1.25s-.87-.45-1.49-.45c-.87,0-1.53.25-1.99.76-.39.43-.59.97-.59,1.62,0,.57.19,1.05.56,1.44.44.46,1.06.69,1.87.69.38,0,.73-.06,1.06-.18.33-.12.62-.28.9-.48l.23.31c-.21.18-.51.35-.92.51-.41.16-.86.24-1.35.24-.95,0-1.69-.3-2.2-.89ZM44.01,102.05c-.09-.11-.22-.17-.39-.17-.26,0-.48.15-.67.46s-.29.61-.29.91c0,.22.05.39.15.51.1.12.22.18.37.18.31,0,.55-.18.72-.54.17-.36.26-.68.26-.97,0-.14-.05-.27-.14-.38Z"/>
        <path class="st0" d="M47.44,101.83h.61v.52c.15-.18.28-.31.4-.39.2-.14.43-.21.69-.21.29,0,.53.07.7.21.1.08.19.2.27.36.14-.2.3-.34.48-.44s.39-.14.62-.14c.49,0,.83.18,1,.53.1.19.14.45.14.77v2.44h-.64v-2.54c0-.24-.06-.41-.18-.5-.12-.09-.27-.14-.45-.14-.24,0-.45.08-.62.24-.17.16-.26.43-.26.81v2.13h-.63v-2.39c0-.25-.03-.43-.09-.54-.09-.17-.27-.26-.52-.26-.23,0-.44.09-.63.27-.19.18-.29.51-.29.98v1.94h-.62v-3.66Z"/>
        <path class="st0" d="M53.28,100.47h.63v.7h-.63v-.7ZM53.28,101.84h.63v3.64h-.63v-3.64Z"/>
        <path class="st0" d="M56.84,101.94c.11.07.23.19.37.36v-1.85h.59v5.04h-.55v-.51c-.14.23-.31.39-.51.49s-.42.15-.67.15c-.41,0-.76-.17-1.06-.51-.3-.34-.45-.8-.45-1.37,0-.53.14-1,.41-1.39.27-.39.66-.59,1.16-.59.28,0,.51.06.7.18ZM55.47,104.69c.17.26.43.4.8.4.28,0,.52-.12.7-.37.18-.25.27-.6.27-1.05s-.09-.81-.28-1.03c-.19-.22-.42-.33-.7-.33-.31,0-.56.12-.75.36-.19.24-.29.59-.29,1.05,0,.39.08.72.25.98Z"/>
        <path class="st0" d="M58.74,100.47h.62v5.02h-.62v-5.02Z"/>
        <path class="st0" d="M62.24,103.27c.14-.02.24-.08.28-.18.03-.05.04-.13.04-.24,0-.21-.07-.36-.22-.46-.15-.09-.36-.14-.64-.14-.32,0-.55.09-.68.26-.07.1-.12.24-.15.43h-.57c.01-.45.16-.77.44-.94.28-.18.61-.27.98-.27.43,0,.78.08,1.05.25.27.16.4.42.4.77v2.11c0,.06.01.12.04.15.03.04.08.06.17.06.03,0,.06,0,.09,0,.03,0,.07,0,.11-.02v.46c-.1.03-.17.04-.22.05s-.12,0-.21,0c-.21,0-.37-.07-.46-.22-.05-.08-.09-.19-.11-.34-.13.16-.31.31-.54.43-.23.12-.49.18-.78.18-.34,0-.62-.1-.83-.31-.22-.21-.32-.46-.32-.77,0-.34.11-.6.32-.79s.49-.3.83-.34l.98-.12ZM60.95,104.93c.13.1.28.15.46.15.22,0,.43-.05.63-.15.34-.17.51-.44.51-.82v-.5c-.08.05-.17.09-.29.12s-.23.05-.35.07l-.37.05c-.22.03-.39.08-.5.14-.19.11-.29.28-.29.51,0,.18.06.32.19.42Z"/>
        <path class="st0" d="M64.17,101.83h.58v.52c.17-.21.36-.37.55-.46s.41-.14.65-.14c.52,0,.87.18,1.05.54.1.2.15.48.15.85v2.35h-.63v-2.31c0-.22-.03-.4-.1-.54-.11-.23-.31-.34-.59-.34-.15,0-.27.02-.36.04-.17.05-.32.15-.44.3-.1.12-.17.25-.2.37-.03.13-.05.31-.05.55v1.92h-.62v-3.66Z"/>
        <path class="st0" d="M70.08,101.94c.11.07.23.19.37.36v-1.85h.59v5.04h-.55v-.51c-.14.23-.31.39-.51.49s-.42.15-.67.15c-.41,0-.76-.17-1.06-.51-.3-.34-.45-.8-.45-1.37,0-.53.14-1,.41-1.39.27-.39.66-.59,1.16-.59.28,0,.51.06.7.18ZM68.7,104.69c.17.26.43.4.8.4.28,0,.52-.12.7-.37.18-.25.27-.6.27-1.05s-.09-.81-.28-1.03c-.19-.22-.42-.33-.7-.33-.31,0-.56.12-.75.36-.19.24-.29.59-.29,1.05,0,.39.08.72.25.98Z"/>
        <path class="st0" d="M71.96,100.45h.62v1.87c.15-.18.28-.31.39-.39.2-.13.45-.2.74-.2.53,0,.89.19,1.08.56.1.2.15.48.15.84v2.35h-.63v-2.31c0-.27-.03-.47-.1-.59-.11-.2-.32-.3-.63-.3-.26,0-.49.09-.69.26-.21.17-.31.51-.31.99v1.94h-.62v-5.04Z"/>
        <path class="st0" d="M78.5,102.19c.32.31.49.78.49,1.39s-.14,1.08-.43,1.46-.73.58-1.33.58c-.5,0-.9-.17-1.19-.51-.29-.34-.44-.8-.44-1.37,0-.61.15-1.1.46-1.47s.73-.55,1.25-.55c.47,0,.86.16,1.19.47ZM78.12,104.63c.15-.31.22-.65.22-1.03,0-.34-.05-.62-.16-.83-.17-.34-.47-.51-.89-.51-.37,0-.64.14-.81.43s-.25.63-.25,1.04.08.71.25.97.44.39.8.39c.4,0,.68-.15.83-.46Z"/>
        <path class="st0" d="M79.74,101.83h.58v.52c.17-.21.36-.37.55-.46s.41-.14.65-.14c.52,0,.87.18,1.05.54.1.2.15.48.15.85v2.35h-.63v-2.31c0-.22-.03-.4-.1-.54-.11-.23-.31-.34-.59-.34-.15,0-.27.02-.36.04-.17.05-.32.15-.44.3-.1.12-.17.25-.2.37-.03.13-.05.31-.05.55v1.92h-.62v-3.66Z"/>
        <path class="st0" d="M85.65,101.94c.11.07.23.19.37.36v-1.85h.59v5.04h-.55v-.51c-.14.23-.31.39-.51.49s-.42.15-.67.15c-.41,0-.76-.17-1.06-.51-.3-.34-.45-.8-.45-1.37,0-.53.14-1,.41-1.39.27-.39.66-.59,1.16-.59.28,0,.51.06.7.18ZM84.28,104.69c.17.26.43.4.8.4.28,0,.52-.12.7-.37.18-.25.27-.6.27-1.05s-.09-.81-.28-1.03c-.19-.22-.42-.33-.7-.33-.31,0-.56.12-.75.36-.19.24-.29.59-.29,1.05,0,.39.08.72.25.98Z"/>
        <path class="st0" d="M89.49,103.27c.14-.02.24-.08.28-.18.03-.05.04-.13.04-.24,0-.21-.07-.36-.22-.46-.15-.09-.36-.14-.64-.14-.32,0-.55.09-.68.26-.07.1-.12.24-.15.43h-.57c.01-.45.16-.77.44-.94.28-.18.61-.27.98-.27.43,0,.78.08,1.05.25.27.16.4.42.4.77v2.11c0,.06.01.12.04.15.03.04.08.06.17.06.03,0,.06,0,.09,0,.03,0,.07,0,.11-.02v.46c-.1.03-.17.04-.22.05s-.12,0-.21,0c-.21,0-.37-.07-.46-.22-.05-.08-.09-.19-.11-.34-.13.16-.31.31-.54.43-.23.12-.49.18-.78.18-.34,0-.62-.1-.83-.31-.22-.21-.32-.46-.32-.77,0-.34.11-.6.32-.79s.49-.3.83-.34l.98-.12ZM88.2,104.93c.13.1.28.15.46.15.22,0,.43-.05.63-.15.34-.17.51-.44.51-.82v-.5c-.08.05-.17.09-.29.12s-.23.05-.35.07l-.37.05c-.22.03-.39.08-.5.14-.19.11-.29.28-.29.51,0,.18.06.32.19.42Z"/>
        <path class="st0" d="M91.57,104.74h.71v.75h-.71v-.75Z"/>
        <path class="st0" d="M95.79,102.02c.26.2.41.55.47,1.04h-.6c-.04-.23-.12-.41-.25-.56s-.34-.22-.63-.22c-.39,0-.67.19-.84.57-.11.25-.16.55-.16.92s.08.67.23.92c.15.25.4.38.73.38.26,0,.46-.08.61-.23.15-.16.25-.37.31-.64h.6c-.07.48-.24.84-.51,1.06s-.62.34-1.05.34c-.48,0-.86-.17-1.15-.52s-.43-.79-.43-1.31c0-.64.16-1.14.47-1.5.31-.36.71-.54,1.19-.54.41,0,.75.1,1.01.3Z"/>
        <path class="st0" d="M99.52,102.19c.32.31.49.78.49,1.39s-.14,1.08-.43,1.46-.73.58-1.33.58c-.5,0-.9-.17-1.19-.51-.29-.34-.44-.8-.44-1.37,0-.61.15-1.1.46-1.47s.73-.55,1.25-.55c.47,0,.86.16,1.19.47ZM99.14,104.63c.15-.31.22-.65.22-1.03,0-.34-.05-.62-.16-.83-.17-.34-.47-.51-.89-.51-.37,0-.64.14-.81.43s-.25.63-.25,1.04.08.71.25.97.44.39.8.39c.4,0,.68-.15.83-.46Z"/>
        <path class="st0" d="M100.76,101.83h.61v.52c.15-.18.28-.31.4-.39.2-.14.43-.21.69-.21.29,0,.53.07.7.21.1.08.19.2.27.36.14-.2.3-.34.48-.44.19-.09.39-.14.62-.14.49,0,.83.18,1,.53.1.19.14.45.14.77v2.44h-.64v-2.54c0-.24-.06-.41-.18-.5-.12-.09-.27-.14-.45-.14-.24,0-.45.08-.62.24-.17.16-.26.43-.26.81v2.13h-.62v-2.39c0-.25-.03-.43-.09-.54-.09-.17-.27-.26-.52-.26-.23,0-.44.09-.63.27-.19.18-.29.51-.29.98v1.94h-.62v-3.66Z"/>
        <path d="M14.01,109.21h.62v1.02h.58v.5h-.58v2.39c0,.13.04.21.13.26.05.03.13.04.24.04.03,0,.06,0,.1,0,.03,0,.07,0,.12-.01v.49c-.07.02-.14.04-.22.04-.08,0-.16.01-.25.01-.29,0-.48-.07-.58-.22-.1-.15-.15-.34-.15-.57v-2.42h-.5v-.5h.5v-1.02Z"/>
        <path d="M19.22,110.28h.71v.75h-.71v-.75ZM19.22,113.14h.71v.75h-.71v-.75Z"/>
        <path d="M24.4,108.79c-.36.7-.59,1.21-.7,1.54-.16.5-.24,1.08-.24,1.73s.09,1.26.28,1.81c.11.34.34.82.67,1.46h-.41c-.33-.52-.54-.85-.62-1-.08-.14-.17-.34-.26-.58-.13-.34-.22-.7-.27-1.08-.02-.2-.04-.39-.04-.57,0-.67.11-1.27.32-1.8.13-.33.41-.84.84-1.5h.43Z"/>
        <path d="M28.32,109.08v.54c-.16.15-.37.42-.63.8-.26.38-.49.79-.69,1.22-.2.43-.35.81-.45,1.17-.07.22-.15.59-.26,1.09h-.68c.15-.93.5-1.86,1.03-2.79.31-.54.64-1.01.98-1.4h-2.71v-.62h3.4Z"/>
        <path d="M31.82,109.78c.22.4.33.96.33,1.66,0,.67-.1,1.22-.3,1.65-.29.62-.76.94-1.41.94-.59,0-1.03-.25-1.31-.77-.24-.43-.36-1-.36-1.71,0-.56.07-1.03.22-1.43.27-.74.76-1.11,1.46-1.11.63,0,1.09.26,1.37.78ZM31.2,113.04c.19-.28.28-.81.28-1.58,0-.56-.07-1.01-.21-1.37-.14-.36-.4-.54-.8-.54-.36,0-.63.17-.8.51-.17.34-.25.84-.25,1.51,0,.5.05.9.16,1.2.16.46.44.69.84.69.32,0,.57-.14.76-.42Z"/>
        <path d="M33.31,112.64c.04.35.2.59.49.73.15.07.31.1.51.1.36,0,.63-.12.81-.35s.26-.49.26-.77c0-.34-.1-.61-.31-.79-.21-.19-.46-.28-.75-.28-.21,0-.39.04-.55.12-.15.08-.28.2-.39.34l-.53-.03.37-2.63h2.54v.59h-2.08l-.21,1.36c.11-.09.22-.15.32-.2.18-.07.39-.11.63-.11.45,0,.83.14,1.14.43.31.29.47.66.47,1.1s-.14.87-.43,1.22c-.29.35-.74.53-1.37.53-.4,0-.75-.11-1.06-.34-.31-.22-.48-.57-.51-1.03h.64Z"/>
        <path d="M36.58,115.32c.36-.71.6-1.22.7-1.54.16-.49.24-1.06.24-1.72s-.09-1.26-.28-1.81c-.11-.34-.34-.82-.67-1.46h.41c.35.56.56.91.64,1.04.07.13.15.31.24.54.11.28.19.57.23.84.05.28.07.55.07.8,0,.67-.11,1.28-.32,1.8-.13.34-.41.84-.84,1.5h-.43Z"/>
        <path d="M41.48,112.64c.04.35.2.59.49.73.15.07.31.1.51.1.36,0,.63-.12.81-.35s.26-.49.26-.77c0-.34-.1-.61-.31-.79-.21-.19-.46-.28-.75-.28-.21,0-.39.04-.55.12-.15.08-.28.2-.39.34l-.53-.03.37-2.63h2.54v.59h-2.08l-.21,1.36c.11-.09.22-.15.32-.2.18-.07.39-.11.63-.11.45,0,.83.14,1.14.43.31.29.47.66.47,1.1s-.14.87-.43,1.22c-.29.35-.74.53-1.37.53-.4,0-.75-.11-1.06-.34-.31-.22-.48-.57-.51-1.03h.64Z"/>
        <path d="M44.99,112.79c.15-.31.45-.6.89-.85l.66-.38c.29-.17.5-.32.62-.44.19-.19.28-.41.28-.65,0-.29-.09-.51-.26-.68s-.4-.25-.68-.25c-.42,0-.71.16-.88.48-.09.17-.13.41-.14.71h-.63c0-.43.09-.77.24-1.04.27-.47.74-.71,1.41-.71.56,0,.97.15,1.23.46.26.3.39.64.39,1.01,0,.39-.14.73-.41,1-.16.16-.45.36-.86.59l-.47.26c-.22.12-.4.24-.53.35-.23.2-.37.42-.43.66h2.67v.58h-3.36c.02-.42.11-.79.26-1.1Z"/>
        <path d="M51.59,109.4c.22.28.32.58.32.88h-.61c-.04-.19-.09-.34-.17-.45-.15-.21-.37-.31-.67-.31-.34,0-.62.16-.82.48-.2.32-.32.77-.34,1.37.14-.21.32-.36.53-.46.2-.09.41-.14.66-.14.41,0,.77.13,1.07.39s.46.65.46,1.17c0,.44-.14.84-.43,1.18s-.7.51-1.24.51c-.46,0-.85-.17-1.19-.52s-.5-.93-.5-1.76c0-.61.07-1.12.22-1.55.28-.81.81-1.22,1.56-1.22.55,0,.93.14,1.14.43ZM51.13,113.14c.16-.22.24-.47.24-.77,0-.25-.07-.49-.22-.72s-.4-.34-.78-.34c-.26,0-.5.09-.7.26-.2.18-.3.44-.3.79,0,.31.09.57.27.78.18.21.43.32.75.32s.57-.11.73-.33Z"/>
        <path d="M53.59,111.62h1.72v.63h-1.72v-.63Z"/>
        <path d="M56.3,110.42v-.47c.44-.04.75-.12.93-.22s.31-.34.39-.72h.49v4.87h-.66v-3.47h-1.15Z"/>
        <path d="M60.08,113.54c-.26-.32-.39-.7-.39-1.16h.64c.03.32.09.55.18.69.16.26.45.39.86.39.32,0,.58-.09.78-.26.2-.17.29-.4.29-.67,0-.34-.1-.57-.31-.71-.21-.13-.49-.2-.86-.2-.04,0-.08,0-.12,0-.04,0-.08,0-.13,0v-.54c.06,0,.12.01.16.01s.09,0,.14,0c.23,0,.42-.04.57-.11.26-.13.39-.36.39-.68,0-.24-.09-.43-.26-.56s-.38-.2-.6-.2c-.41,0-.69.14-.85.41-.09.15-.14.36-.15.64h-.61c0-.36.07-.67.22-.93.25-.46.69-.68,1.32-.68.5,0,.89.11,1.16.33.27.22.41.54.41.97,0,.3-.08.54-.24.73-.1.12-.23.21-.39.27.26.07.46.21.6.41.14.2.22.45.22.74,0,.47-.15.85-.46,1.14s-.74.44-1.31.44-1-.16-1.26-.48Z"/>
        <path d="M65.74,113.89v-1.2h-2.15v-.6l2.24-3.11h.52v3.18h.72v.54h-.72v1.2h-.62ZM65.73,112.16v-2.22l-1.57,2.22h1.57Z"/>
        <path d="M69.63,113.89v-1.2h-2.15v-.6l2.24-3.11h.52v3.18h.72v.54h-.72v1.2h-.62ZM69.62,112.16v-2.22l-1.57,2.22h1.57Z"/>
        <path d="M73.25,110.23h.8l.84,1.29.85-1.29.75.02-1.23,1.77,1.29,1.88h-.79l-.91-1.37-.88,1.37h-.78l1.29-1.88-1.22-1.78Z"/>
        <path d="M81.86,109.78c.22.4.33.96.33,1.66,0,.67-.1,1.22-.3,1.65-.29.62-.76.94-1.41.94-.59,0-1.03-.25-1.31-.77-.24-.43-.36-1-.36-1.71,0-.56.07-1.03.22-1.43.27-.74.76-1.11,1.46-1.11.63,0,1.09.26,1.37.78ZM81.24,113.04c.19-.28.28-.81.28-1.58,0-.56-.07-1.01-.21-1.37-.14-.36-.4-.54-.8-.54-.36,0-.63.17-.8.51-.17.34-.25.84-.25,1.51,0,.5.05.9.16,1.2.16.46.44.69.84.69.32,0,.57-.14.76-.42Z"/>
        <path d="M85.75,109.78c.22.4.33.96.33,1.66,0,.67-.1,1.22-.3,1.65-.29.62-.76.94-1.41.94-.59,0-1.03-.25-1.31-.77-.24-.43-.36-1-.36-1.71,0-.56.07-1.03.22-1.43.27-.74.76-1.11,1.46-1.11.63,0,1.09.26,1.37.78ZM85.13,113.04c.19-.28.28-.81.28-1.58,0-.56-.07-1.01-.21-1.37-.14-.36-.4-.54-.8-.54-.36,0-.63.17-.8.51-.17.34-.25.84-.25,1.51,0,.5.05.9.16,1.2.16.46.44.69.84.69.32,0,.57-.14.76-.42Z"/>
        <path d="M89.64,109.78c.22.4.33.96.33,1.66,0,.67-.1,1.22-.3,1.65-.29.62-.76.94-1.41.94-.59,0-1.03-.25-1.31-.77-.24-.43-.36-1-.36-1.71,0-.56.07-1.03.22-1.43.27-.74.76-1.11,1.46-1.11.63,0,1.09.26,1.37.78ZM89.02,113.04c.19-.28.28-.81.28-1.58,0-.56-.07-1.01-.21-1.37-.14-.36-.4-.54-.8-.54-.36,0-.63.17-.8.51-.17.34-.25.84-.25,1.51,0,.5.05.9.16,1.2.16.46.44.69.84.69.32,0,.57-.14.76-.42Z"/>
        <path d="M16.3,118.82c.26.2.41.55.47,1.04h-.6c-.04-.23-.12-.41-.25-.56s-.34-.22-.63-.22c-.39,0-.67.19-.84.57-.11.25-.16.55-.16.92s.08.67.23.92c.15.25.4.38.73.38.26,0,.46-.08.61-.23.15-.16.25-.37.31-.64h.6c-.07.48-.24.84-.51,1.06s-.62.34-1.05.34c-.48,0-.86-.17-1.15-.52s-.43-.79-.43-1.31c0-.64.16-1.14.47-1.5.31-.36.71-.54,1.19-.54.41,0,.75.1,1.01.3Z"/>
        <path d="M19.65,118.67h.71v.75h-.71v-.75ZM19.65,121.54h.71v.75h-.71v-.75Z"/>
        <path d="M26.03,118.18c.22.4.33.96.33,1.66,0,.67-.1,1.22-.3,1.65-.29.62-.76.94-1.41.94-.59,0-1.03-.25-1.31-.77-.24-.43-.36-1-.36-1.71,0-.56.07-1.03.22-1.43.27-.74.76-1.11,1.46-1.11.63,0,1.09.26,1.37.78ZM25.42,121.44c.19-.28.28-.81.28-1.58,0-.56-.07-1.01-.21-1.37-.14-.36-.4-.54-.8-.54-.36,0-.63.17-.8.51-.17.34-.25.84-.25,1.51,0,.5.05.9.16,1.2.16.46.44.69.84.69.32,0,.57-.14.76-.42Z"/>
        <path d="M29.93,118.18c.22.4.33.96.33,1.66,0,.67-.1,1.22-.3,1.65-.29.62-.76.94-1.41.94-.59,0-1.03-.25-1.31-.77-.24-.43-.36-1-.36-1.71,0-.56.07-1.03.22-1.43.27-.74.76-1.11,1.46-1.11.63,0,1.09.26,1.37.78ZM29.31,121.44c.19-.28.28-.81.28-1.58,0-.56-.07-1.01-.21-1.37-.14-.36-.4-.54-.8-.54-.36,0-.63.17-.8.51-.17.34-.25.84-.25,1.51,0,.5.05.9.16,1.2.16.46.44.69.84.69.32,0,.57-.14.76-.42Z"/>
        <path d="M33.82,118.18c.22.4.33.96.33,1.66,0,.67-.1,1.22-.3,1.65-.29.62-.76.94-1.41.94-.59,0-1.03-.25-1.31-.77-.24-.43-.36-1-.36-1.71,0-.56.07-1.03.22-1.43.27-.74.76-1.11,1.46-1.11.63,0,1.09.26,1.37.78ZM33.2,121.44c.19-.28.28-.81.28-1.58,0-.56-.07-1.01-.21-1.37-.14-.36-.4-.54-.8-.54-.36,0-.63.17-.8.51-.17.34-.25.84-.25,1.51,0,.5.05.9.16,1.2.16.46.44.69.84.69.32,0,.57-.14.76-.42Z"/>
        <path d="M34.74,120.02h1.72v.63h-1.72v-.63Z"/>
        <path d="M40.05,118.18c.22.4.33.96.33,1.66,0,.67-.1,1.22-.3,1.65-.29.62-.76.94-1.41.94-.59,0-1.03-.25-1.31-.77-.24-.43-.36-1-.36-1.71,0-.56.07-1.03.22-1.43.27-.74.76-1.11,1.46-1.11.63,0,1.09.26,1.37.78ZM39.43,121.44c.19-.28.28-.81.28-1.58,0-.56-.07-1.01-.21-1.37-.14-.36-.4-.54-.8-.54-.36,0-.63.17-.8.51-.17.34-.25.84-.25,1.51,0,.5.05.9.16,1.2.16.46.44.69.84.69.32,0,.57-.14.76-.42Z"/>
        <path d="M43.94,118.18c.22.4.33.96.33,1.66,0,.67-.1,1.22-.3,1.65-.29.62-.76.94-1.41.94-.59,0-1.03-.25-1.31-.77-.24-.43-.36-1-.36-1.71,0-.56.07-1.03.22-1.43.27-.74.76-1.11,1.46-1.11.63,0,1.09.26,1.37.78ZM43.32,121.44c.19-.28.28-.81.28-1.58,0-.56-.07-1.01-.21-1.37-.14-.36-.4-.54-.8-.54-.36,0-.63.17-.8.51-.17.34-.25.84-.25,1.51,0,.5.05.9.16,1.2.16.46.44.69.84.69.32,0,.57-.14.76-.42Z"/>
        <path d="M47.83,118.18c.22.4.33.96.33,1.66,0,.67-.1,1.22-.3,1.65-.29.62-.76.94-1.41.94-.59,0-1.03-.25-1.31-.77-.24-.43-.36-1-.36-1.71,0-.56.07-1.03.22-1.43.27-.74.76-1.11,1.46-1.11.63,0,1.09.26,1.37.78ZM47.21,121.44c.19-.28.28-.81.28-1.58,0-.56-.07-1.01-.21-1.37-.14-.36-.4-.54-.8-.54-.36,0-.63.17-.8.51-.17.34-.25.84-.25,1.51,0,.5.05.9.16,1.2.16.46.44.69.84.69.32,0,.57-.14.76-.42Z"/>
        <path d="M48.75,120.02h1.72v.63h-1.72v-.63Z"/>
        <path d="M54.06,118.18c.22.4.33.96.33,1.66,0,.67-.1,1.22-.3,1.65-.29.62-.76.94-1.41.94-.59,0-1.03-.25-1.31-.77-.24-.43-.36-1-.36-1.71,0-.56.07-1.03.22-1.43.27-.74.76-1.11,1.46-1.11.63,0,1.09.26,1.37.78ZM53.44,121.44c.19-.28.28-.81.28-1.58,0-.56-.07-1.01-.21-1.37-.14-.36-.4-.54-.8-.54-.36,0-.63.17-.8.51-.17.34-.25.84-.25,1.51,0,.5.05.9.16,1.2.16.46.44.69.84.69.32,0,.57-.14.76-.42Z"/>
        <path d="M57.95,118.18c.22.4.33.96.33,1.66,0,.67-.1,1.22-.3,1.65-.29.62-.76.94-1.41.94-.59,0-1.03-.25-1.31-.77-.24-.43-.36-1-.36-1.71,0-.56.07-1.03.22-1.43.27-.74.76-1.11,1.46-1.11.63,0,1.09.26,1.37.78ZM57.33,121.44c.19-.28.28-.81.28-1.58,0-.56-.07-1.01-.21-1.37-.14-.36-.4-.54-.8-.54-.36,0-.63.17-.8.51-.17.34-.25.84-.25,1.51,0,.5.05.9.16,1.2.16.46.44.69.84.69.32,0,.57-.14.76-.42Z"/>
        <path d="M61.84,118.18c.22.4.33.96.33,1.66,0,.67-.1,1.22-.3,1.65-.29.62-.76.94-1.41.94-.59,0-1.03-.25-1.31-.77-.24-.43-.36-1-.36-1.71,0-.56.07-1.03.22-1.43.27-.74.76-1.11,1.46-1.11.63,0,1.09.26,1.37.78ZM61.22,121.44c.19-.28.28-.81.28-1.58,0-.56-.07-1.01-.21-1.37-.14-.36-.4-.54-.8-.54-.36,0-.63.17-.8.51-.17.34-.25.84-.25,1.51,0,.5.05.9.16,1.2.16.46.44.69.84.69.32,0,.57-.14.76-.42Z"/>
        <path d="M65.73,118.18c.22.4.33.96.33,1.66,0,.67-.1,1.22-.3,1.65-.29.62-.76.94-1.41.94-.59,0-1.03-.25-1.31-.77-.24-.43-.36-1-.36-1.71,0-.56.07-1.03.22-1.43.27-.74.76-1.11,1.46-1.11.63,0,1.09.26,1.37.78ZM65.12,121.44c.19-.28.28-.81.28-1.58,0-.56-.07-1.01-.21-1.37-.14-.36-.4-.54-.8-.54-.36,0-.63.17-.8.51-.17.34-.25.84-.25,1.51,0,.5.05.9.16,1.2.16.46.44.69.84.69.32,0,.57-.14.76-.42Z"/>
      </g>
      <g>
        <path d="M188.51,104.3c.02.34.15.57.39.7.12.07.27.1.42.1.29,0,.54-.12.75-.37.21-.25.35-.74.44-1.49-.14.22-.31.37-.51.46-.2.09-.42.13-.65.13-.47,0-.84-.15-1.12-.44-.27-.29-.41-.67-.41-1.13s.14-.83.41-1.17c.27-.34.67-.5,1.2-.5.71,0,1.21.32,1.48.96.15.35.23.79.23,1.33,0,.6-.09,1.13-.27,1.59-.3.77-.8,1.15-1.52,1.15-.48,0-.84-.12-1.09-.38-.25-.25-.37-.57-.37-.94h.62ZM190.12,103.06c.2-.16.3-.44.3-.84,0-.36-.09-.63-.27-.8-.18-.18-.41-.26-.69-.26-.3,0-.54.1-.72.3-.18.2-.26.47-.26.81,0,.32.08.57.23.76.16.19.4.28.74.28.24,0,.47-.08.67-.24Z"/>
        <path d="M193.8,105.49v-1.2h-2.15v-.6l2.24-3.11h.52v3.18h.72v.54h-.72v1.2h-.62ZM193.79,103.76v-2.22l-1.57,2.22h1.57Z"/>
        <path d="M199.03,100.68v.54c-.16.15-.37.42-.63.8-.26.38-.49.79-.69,1.22-.2.43-.35.81-.45,1.17-.07.22-.15.59-.26,1.09h-.68c.15-.93.5-1.86,1.03-2.79.31-.54.64-1.01.98-1.4h-2.71v-.62h3.4Z"/>
        <path d="M204.21,103.99c0,.42-.06.75-.19.99-.23.43-.68.64-1.33.64-.38,0-.7-.1-.96-.31-.27-.2-.4-.57-.4-1.09v-.36h.64v.36c0,.27.06.48.18.62s.31.21.57.21c.36,0,.6-.12.71-.37.07-.15.1-.44.1-.86v-3.35h.67v3.52Z"/>
        <path d="M207.81,102.19c.32.31.49.78.49,1.39s-.14,1.08-.43,1.46-.73.58-1.33.58c-.5,0-.9-.17-1.19-.51-.29-.34-.44-.8-.44-1.37,0-.61.15-1.1.46-1.47.31-.36.73-.55,1.25-.55.47,0,.86.16,1.19.47ZM207.43,104.63c.15-.31.22-.65.22-1.03,0-.34-.05-.62-.16-.83-.17-.34-.47-.51-.89-.51-.37,0-.64.14-.81.43s-.25.63-.25,1.04.08.71.25.97.44.39.8.39c.4,0,.68-.15.83-.46Z"/>
        <path d="M209.05,101.83h.58v.52c.17-.21.36-.37.55-.46.19-.09.41-.14.65-.14.52,0,.87.18,1.05.54.1.2.15.48.15.85v2.35h-.62v-2.31c0-.22-.03-.4-.1-.54-.11-.23-.31-.34-.59-.34-.15,0-.27.02-.36.04-.17.05-.32.15-.44.3-.1.12-.17.25-.2.37-.03.13-.05.31-.05.55v1.92h-.62v-3.66Z"/>
        <path d="M215.21,101.93c.24.12.43.28.55.47.12.18.2.4.24.65.04.17.05.44.05.81h-2.66c.01.37.1.67.26.9.16.22.41.34.76.34.32,0,.57-.11.76-.32.11-.12.18-.27.23-.43h.6c-.02.13-.07.28-.16.45-.09.17-.19.3-.3.41-.19.18-.42.31-.69.37-.15.04-.31.05-.5.05-.45,0-.84-.17-1.15-.5-.31-.33-.47-.8-.47-1.39s.16-1.07.48-1.43c.32-.37.73-.55,1.24-.55.26,0,.51.06.75.18ZM215.43,103.37c-.02-.27-.08-.48-.17-.64-.17-.3-.45-.44-.84-.44-.28,0-.52.1-.71.31s-.29.46-.3.78h2.02Z"/>
        <path d="M217.2,104.34c.02.21.07.36.16.47.16.2.43.3.82.3.23,0,.44-.05.61-.15.18-.1.26-.25.26-.46,0-.16-.07-.28-.21-.36-.09-.05-.27-.11-.53-.17l-.5-.12c-.32-.08-.55-.16-.7-.26-.27-.17-.4-.4-.4-.69,0-.35.13-.63.38-.84.25-.21.59-.32,1.02-.32.56,0,.96.16,1.21.48.15.21.23.43.22.66h-.58c-.01-.14-.06-.26-.15-.38-.14-.16-.4-.24-.75-.24-.24,0-.42.04-.54.13-.12.09-.18.21-.18.35,0,.16.08.29.24.38.09.06.23.11.41.15l.42.1c.45.11.75.21.91.31.24.16.36.4.36.74s-.12.61-.38.84c-.25.24-.63.36-1.14.36-.55,0-.94-.12-1.17-.37s-.35-.55-.37-.92h.59Z"/>
        <path d="M222.45,100.47h2.28c.38,0,.69.06.93.17.46.21.7.61.7,1.19,0,.3-.06.55-.19.74s-.3.35-.52.46c.2.08.34.18.44.31.1.13.16.34.17.63l.02.67c0,.19.02.33.05.43.04.16.11.26.22.31v.11h-.83s-.04-.1-.05-.17-.03-.2-.03-.4l-.04-.84c-.02-.33-.13-.55-.36-.66-.13-.06-.32-.09-.59-.09h-1.5v2.15h-.68v-5.02ZM224.66,102.77c.31,0,.56-.06.74-.19s.27-.36.27-.69c0-.36-.13-.6-.38-.73-.14-.07-.32-.1-.54-.1h-1.62v1.72h1.53Z"/>
        <path d="M229.99,102.19c.32.31.49.78.49,1.39s-.14,1.08-.43,1.46-.73.58-1.33.58c-.5,0-.9-.17-1.19-.51-.29-.34-.44-.8-.44-1.37,0-.61.16-1.1.46-1.47.31-.36.73-.55,1.25-.55.47,0,.86.16,1.19.47ZM229.61,104.63c.15-.31.22-.65.22-1.03,0-.34-.05-.62-.16-.83-.17-.34-.47-.51-.89-.51-.37,0-.64.14-.81.43s-.25.63-.25,1.04.08.71.25.97.44.39.8.39c.4,0,.68-.15.83-.46Z"/>
        <path d="M233.19,103.27c.14-.02.24-.08.28-.18.03-.05.04-.13.04-.24,0-.21-.08-.36-.22-.46-.15-.09-.36-.14-.64-.14-.32,0-.55.09-.68.26-.08.1-.12.24-.15.43h-.57c.01-.45.16-.77.44-.94.28-.18.61-.27.98-.27.43,0,.78.08,1.05.25.27.16.4.42.4.77v2.11c0,.06.01.12.04.15.03.04.08.06.17.06.03,0,.06,0,.09,0,.04,0,.07,0,.11-.02v.46c-.1.03-.17.04-.22.05-.05,0-.12,0-.21,0-.21,0-.37-.07-.46-.22-.05-.08-.09-.19-.11-.34-.13.16-.31.31-.54.43-.23.12-.49.18-.78.18-.34,0-.62-.1-.83-.31-.22-.21-.32-.46-.32-.77,0-.34.11-.6.32-.79.21-.19.49-.3.83-.34l.98-.12ZM231.9,104.93c.13.1.28.15.46.15.22,0,.43-.05.63-.15.34-.17.51-.44.51-.82v-.5c-.08.05-.17.09-.29.12s-.23.05-.35.07l-.37.05c-.22.03-.39.08-.5.14-.19.11-.29.28-.29.51,0,.18.07.32.19.42Z"/>
        <path d="M237.14,101.94c.11.07.23.19.37.36v-1.85h.59v5.04h-.55v-.51c-.14.23-.31.39-.51.49-.19.1-.42.15-.67.15-.41,0-.76-.17-1.06-.51-.3-.34-.45-.8-.45-1.37,0-.53.14-1,.41-1.39.27-.39.66-.59,1.16-.59.28,0,.51.06.7.18ZM235.76,104.69c.17.26.43.4.8.4.28,0,.52-.12.7-.37s.27-.6.27-1.05-.09-.81-.28-1.03c-.19-.22-.42-.33-.7-.33-.31,0-.56.12-.75.36-.19.24-.29.59-.29,1.05,0,.39.08.72.25.98Z"/>
        <path d="M200.18,108.87h.97l1.44,4.25,1.43-4.25h.97v5.02h-.65v-2.96c0-.1,0-.27,0-.51,0-.24,0-.49,0-.76l-1.43,4.23h-.67l-1.45-4.23v.15c0,.12,0,.31,0,.56s.01.44.01.56v2.96h-.65v-5.02Z"/>
        <path d="M205.95,108.87h.63v.7h-.63v-.7ZM205.95,110.25h.63v3.64h-.63v-3.64Z"/>
        <path d="M209.51,110.34c.11.07.23.19.37.36v-1.85h.59v5.04h-.55v-.51c-.14.23-.31.39-.51.49s-.42.15-.67.15c-.41,0-.76-.17-1.05-.51-.3-.34-.45-.8-.45-1.37,0-.53.14-1,.41-1.39.27-.39.66-.59,1.16-.59.28,0,.51.06.7.18ZM208.14,113.09c.17.26.43.4.8.4.28,0,.52-.12.7-.37.18-.25.27-.6.27-1.05s-.09-.81-.28-1.03c-.19-.22-.42-.33-.7-.33-.31,0-.56.12-.75.36-.19.24-.29.59-.29,1.05,0,.39.08.72.25.98Z"/>
        <path d="M211.41,108.87h.62v5.02h-.62v-5.02Z"/>
        <path d="M214.91,111.67c.14-.02.24-.08.28-.18.03-.05.04-.13.04-.24,0-.21-.07-.36-.22-.46-.15-.09-.36-.14-.64-.14-.32,0-.55.09-.68.26-.08.1-.12.24-.15.43h-.57c.01-.45.16-.77.44-.94.28-.18.61-.27.98-.27.43,0,.78.08,1.05.25.27.16.4.42.4.77v2.11c0,.06.01.12.04.15.03.04.08.06.17.06.03,0,.06,0,.09,0,.03,0,.07,0,.11-.02v.46c-.1.03-.17.04-.22.05-.05,0-.12,0-.21,0-.21,0-.37-.07-.46-.22-.05-.08-.09-.19-.11-.34-.12.16-.3.31-.54.43-.23.12-.49.18-.78.18-.34,0-.62-.1-.83-.31-.22-.21-.32-.46-.32-.77,0-.34.11-.6.32-.79s.49-.3.83-.34l.98-.12ZM213.62,113.33c.13.1.28.15.46.15.22,0,.43-.05.63-.15.34-.17.51-.44.51-.82v-.5c-.08.05-.17.09-.29.12s-.23.05-.35.07l-.37.05c-.22.03-.39.08-.5.14-.19.11-.29.28-.29.51,0,.18.06.32.19.42Z"/>
        <path d="M216.84,110.23h.58v.52c.17-.21.36-.37.55-.46.19-.09.41-.14.65-.14.52,0,.87.18,1.05.54.1.2.15.48.15.85v2.35h-.63v-2.31c0-.22-.03-.4-.1-.54-.11-.23-.31-.34-.59-.34-.15,0-.27.02-.36.04-.17.05-.32.15-.44.3-.1.12-.17.25-.2.37-.03.13-.05.31-.05.55v1.92h-.62v-3.66Z"/>
        <path d="M222.75,110.34c.11.07.23.19.37.36v-1.85h.59v5.04h-.55v-.51c-.14.23-.31.39-.51.49s-.42.15-.67.15c-.41,0-.76-.17-1.05-.51-.3-.34-.45-.8-.45-1.37,0-.53.14-1,.41-1.39.27-.39.66-.59,1.16-.59.28,0,.51.06.7.18ZM221.37,113.09c.17.26.43.4.8.4.28,0,.52-.12.7-.37.18-.25.27-.6.27-1.05s-.09-.81-.28-1.03c-.19-.22-.42-.33-.7-.33-.31,0-.56.12-.75.36-.19.24-.29.59-.29,1.05,0,.39.08.72.25.98Z"/>
        <path d="M224.76,114.61c.16-.03.27-.14.33-.33.03-.1.05-.2.05-.3,0-.02,0-.03,0-.04,0-.01,0-.03,0-.04h-.37v-.75h.73v.69c0,.27-.05.51-.16.71s-.3.33-.57.38v-.32Z"/>
        <path d="M232.74,109.59c.33.44.5,1.01.5,1.71,0,.75-.19,1.37-.57,1.87-.45.58-1.08.88-1.91.88-.77,0-1.38-.25-1.82-.77-.39-.49-.59-1.11-.59-1.87,0-.68.17-1.26.51-1.74.43-.62,1.07-.93,1.92-.93s1.54.29,1.97.86ZM232.14,112.79c.27-.43.4-.92.4-1.48,0-.59-.15-1.07-.46-1.43-.31-.36-.73-.54-1.27-.54s-.94.18-1.27.54c-.33.36-.49.88-.49,1.58,0,.56.14,1.03.42,1.41.28.38.74.57,1.37.57s1.03-.21,1.3-.64Z"/>
        <path d="M234.05,108.87h.8l2.5,4.06v-4.06h.65v5.02h-.76l-2.54-4.05v4.05h-.65v-5.02Z"/>
        <path d="M211.08,117.27h.68v4.42h2.52v.6h-3.2v-5.02Z"/>
        <path d="M216.77,122.29v-1.2h-2.15v-.6l2.24-3.11h.52v3.18h.72v.54h-.72v1.2h-.62ZM216.76,120.56v-2.22l-1.57,2.22h1.57Z"/>
        <path d="M218.95,117.27h2.28c.38,0,.69.06.93.17.46.21.69.61.69,1.19,0,.3-.06.55-.19.74-.12.19-.3.35-.52.46.2.08.34.18.44.31.1.13.15.34.17.63l.02.67c0,.19.02.33.05.43.04.16.11.26.22.31v.11h-.83s-.04-.1-.05-.17-.02-.2-.03-.4l-.04-.84c-.02-.33-.13-.55-.36-.66-.13-.06-.32-.09-.59-.09h-1.5v2.15h-.68v-5.02ZM221.16,119.57c.31,0,.56-.06.74-.19s.27-.36.27-.69c0-.36-.13-.6-.38-.73-.13-.07-.32-.1-.54-.1h-1.62v1.72h1.53Z"/>
        <path d="M228.6,118.18c.22.4.33.96.33,1.66,0,.67-.1,1.22-.3,1.65-.29.62-.76.94-1.41.94-.59,0-1.03-.25-1.31-.77-.24-.43-.36-1-.36-1.71,0-.56.07-1.03.21-1.43.27-.74.76-1.11,1.46-1.11.63,0,1.09.26,1.37.78ZM227.98,121.44c.19-.28.28-.81.28-1.58,0-.56-.07-1.01-.21-1.37-.14-.36-.4-.54-.8-.54-.36,0-.63.17-.8.51-.17.34-.25.84-.25,1.51,0,.5.05.9.16,1.2.16.46.44.69.84.69.32,0,.57-.14.76-.42Z"/>
        <path d="M233.1,117.41c.49.26.79.72.9,1.38h-.67c-.08-.37-.25-.63-.5-.8-.25-.17-.57-.25-.95-.25-.46,0-.84.17-1.15.52-.31.35-.47.87-.47,1.56,0,.6.13,1.08.39,1.46s.68.56,1.26.56c.44,0,.81-.13,1.1-.39.29-.26.44-.69.45-1.28h-1.57v-.56h2.2v2.69h-.44l-.16-.65c-.23.25-.43.43-.6.53-.29.17-.67.25-1.12.25-.58,0-1.09-.19-1.51-.58-.46-.48-.69-1.15-.69-1.99s.22-1.51.67-2.01c.43-.47.98-.71,1.66-.71.46,0,.87.09,1.21.27Z"/>
        <path d="M235.34,118.82v-.47c.44-.04.75-.12.93-.22s.31-.34.39-.72h.49v4.87h-.66v-3.47h-1.15Z"/>
      </g>
      <line class="st15" x1="13.5" y1="94.18" x2="238.08" y2="94.18"/>
    </g>
    <g>
      <path class="st13" d="M31.99,15.97l-18.49,24.53h8.37l14.94-19.85,9.3-.05-13.96,19.91h7.44l14.37-19.91h7.07s3.59-.05,1.93,2.52c-1.92,2.98-12.49,17.39-12.49,17.39h8.07l13.89-19s4.38-5.54-4.49-5.54H31.99Z"/>
      <polygon class="st12" points="76.8 22.47 70.65 30.82 74.55 30.82 80.76 22.47 76.8 22.47"/>
      <polygon class="st2" points="103.02 18.99 94.29 30.82 98.31 30.82 106.76 18.99 103.02 18.99"/>
      <path class="st1" d="M124.27,22.47l-6.18,8.35h4.05s4.94-6.69,4.94-6.69h6.38s1.73-.24.8.92c-.92,1.16-4.15,5.77-4.15,5.77h4.17s4.47-6.33,4.47-6.33c0,0,1.42-1.73-3.21-2.02h-11.28Z"/>
      <path class="st4" d="M91.19,35.66l-3.57,4.82h2.34s2.85-3.86,2.85-3.86h3.68s1-.14.46.53c-.53.67-2.4,3.33-2.4,3.33h2.41s2.58-3.65,2.58-3.65c0,0,.82-1-1.85-1.17h-6.51Z"/>
      <rect class="st9" x="70.64" y="32.1" width="81.01" height=".7"/>
      <path class="st8" d="M117.38,22.47c5.44,0,3.17,2.22,3.17,2.22,0,0-1.77,2.35-3.03,4.33-1.26,1.99-5,1.79-5,1.79h-8.17c-4.57,0-2.73-1.99-2.73-1.99l1.45-1.95c1.04-1.28,2.43-1.1,2.43-1.1l10.33-.1s.18-.22.7-.96c.52-.74-.98-.6-.98-.6h-10.5l1.1-1.64h11.22ZM106.76,27.53l-.78.88s-.82.7.78.75c1.84.06,5.49,0,5.49,0,0,0,.86.09,1.34-.48.56-.67.91-1.15.91-1.15h-7.73Z"/>
      <path class="st5" d="M117.81,35.65c3.13,0,1.82,1.28,1.82,1.28,0,0-1.01,1.35-1.74,2.49-.73,1.14-2.87,1.03-2.87,1.03h-4.69c-2.63,0-1.57-1.15-1.57-1.15l.83-1.12c.6-.74,1.4-.63,1.4-.63l5.94-.06s.1-.13.4-.55c.3-.43-.57-.35-.57-.35h-6.03l.63-.94h6.45ZM111.7,38.56l-.45.51s-.47.4.45.43c1.06.04,3.15,0,3.15,0,0,0,.5.05.77-.28.32-.38.52-.66.52-.66h-4.44Z"/>
      <path class="st7" d="M101.03,18.99l-7.59,10.19c-1.32,1.71-3.8,1.63-3.8,1.63h-8.67c-5.11,0-3-2.51-3-2.51l2.78-3.8c1.63-2.27,5.3-2.03,5.3-2.03h8.39l2.79-3.48h3.79ZM86.62,24.16s-1.07-.19-1.61.43c-.53.62-2.81,3.72-2.81,3.72,0,0-.88.88.4.88h5.62s.86.13,1.39-.51c.54-.64,2.76-3.59,2.76-3.59,0,0,1.12-.96-.56-.96s-5.19.03-5.19.03"/>
      <path class="st6" d="M160.65,18.99l-7.59,10.19c-1.32,1.71-3.8,1.63-3.8,1.63h-8.67c-5.11,0-2.99-2.51-2.99-2.51l2.78-3.8c1.63-2.27,5.3-2.03,5.3-2.03h8.39l2.79-3.48h3.79ZM146.24,24.16s-1.07-.19-1.61.43c-.53.62-2.81,3.72-2.81,3.72,0,0-.88.88.4.88h5.62s.86.13,1.39-.51c.54-.64,2.76-3.59,2.76-3.59,0,0,1.12-.96-.56-.96s-5.19.03-5.19.03"/>
      <path class="st3" d="M111.85,33.64l-4.38,5.88c-.76.99-2.19.94-2.19.94h-5c-2.94,0-1.73-1.45-1.73-1.45l1.6-2.19c.94-1.31,3.05-1.17,3.05-1.17h4.84l1.61-2h2.19ZM103.54,36.61s-.73-.01-.93.25c-.28.38-1.62,2.15-1.62,2.15,0,0-.51.51.23.51h3.24s.49.08.8-.29c.31-.37,1.59-2.07,1.59-2.07,0,0,.58-.56-.32-.56-.97,0-2.99.02-2.99.02"/>
      <path class="st11" d="M89.24,37.05l-1.73,2.47c-.76.99-2.19.94-2.19.94h-5c-2.94,0-1.73-1.45-1.73-1.45l1.6-2.19c.94-1.31,3.05-1.17,3.05-1.17h4.84c2.02,0,1.14,1.4,1.14,1.4M83.58,36.61s-.67-.03-.93.25c-.32.34-1.62,2.15-1.62,2.15,0,0-.51.51.23.51h3.24s.49.08.8-.29c.31-.37,1.59-2.07,1.59-2.07,0,0,.55-.56-.32-.56-.97,0-2.99.02-2.99.02"/>
      <polygon class="st10" points="70.45 33.39 65.19 40.5 67.85 40.5 70.11 37.37 75.89 37.39 73.74 40.5 76.35 40.5 81.41 33.39 78.8 33.39 76.71 36.17 70.89 36.17 72.96 33.39 70.45 33.39"/>
    </g>
  </g>
</svg>