<?xml version="1.0" encoding="UTF-8"?>
<svg id="Layer_1" xmlns="http://www.w3.org/2000/svg" version="1.1" viewBox="0 0 4572.22 676.52">
  <!-- Generator: Adobe Illustrator 30.5.1, SVG Export Plug-In . SVG Version: 2.1.4 Build 3)  -->
  <defs>
    <style>
      .st0 {
        fill: #fff;
      }

      .st1 {
        fill: #f5333f;
      }
    </style>
  </defs>
  <g>
    <g>
      <path class="st0" d="M3204.55,14.2c26.31,0,48.84,4.72,67.58,14.16,18.73,9.44,32.89,22.31,42.48,38.61,9.58,16.3,14.37,34.47,14.37,54.49s-4.79,38.19-14.37,54.49c-9.59,16.3-23.74,29.18-42.48,38.61-18.74,9.44-41.4,14.16-68.01,14.16h-58.78v63.5h-60.07V14.2h119.28ZM3249.6,161.16c10.87-10.73,16.3-23.95,16.3-39.69s-5.44-28.96-16.3-39.69c-10.87-10.73-24.89-16.09-42.05-16.09h-62.21v111.55h61.78c17.44,0,31.6-5.36,42.48-16.09Z"/>
      <path class="st0" d="M3491.58,14.2c26.6,0,49.27,4.72,68.01,14.16,18.73,9.44,32.89,22.31,42.48,38.61,9.58,16.3,14.37,34.61,14.37,54.92,0,18.31-4.58,35.33-13.73,51.06-9.16,15.73-22.17,28.18-39.04,37.33l57.92,81.95h-69.08l-42.91-65.22c-9.16,1.43-17.02,2.15-23.6,2.15h-53.63v63.07h-60.07V14.2h119.28ZM3523.97,170.16c9.01-5,16.09-11.8,21.24-20.38,5.15-8.58,7.72-17.87,7.72-27.89,0-16.02-5.58-29.46-16.73-40.33-11.16-10.87-25.31-16.3-42.48-16.3h-61.36v112.41h60.93c11.44,0,21.67-2.5,30.68-7.51Z"/>
      <path class="st0" d="M3719.84,14.2v278.03h-60.07V14.2h60.07Z"/>
      <path class="st0" d="M3832.68,14.2l95.68,132.15c6.58,8.87,13.23,18.74,19.95,29.6,6.72,10.87,11.08,18.02,13.09,21.45V14.2h60.07v278.03h-57.92l-92.67-127c-7.72-10.3-15.09-21.09-22.1-32.39-7.01-11.3-11.52-18.66-13.52-22.1v181.49h-60.07V14.2h57.49Z"/>
      <path class="st0" d="M4057.93,65.69V14.2h248.85v51.49h-94.39v226.54h-60.07V65.69h-94.39Z"/>
    </g>
    <path class="st0" d="M4384.38,280.17c-14.38-6.21-25.83-15.63-34.35-28.25-8.52-12.61-12.68-28-12.48-46.16.16-13.75,3.82-27.06,10.98-39.91,7.16-12.85,17.81-23.46,31.94-31.83-10.54-17.18-15.72-33.61-15.54-49.29.14-12.38,3.3-23.97,9.48-34.77,6.17-10.8,15.29-19.5,27.33-26.11,12.04-6.6,26.18-9.81,42.42-9.63,35.76.41,61.56,18.45,77.39,54.12l-42.42,28c-3.73-10.77-8.73-19.15-14.99-25.14-6.26-5.99-12.97-9.02-20.12-9.1-7.16-.08-12.96,2.12-17.41,6.61-4.46,4.49-6.72,10.04-6.79,16.64-.09,7.71,2.5,16.06,7.76,25.06,5.26,9,14.15,19.77,26.67,32.29l51.42,51.76c4.2-6.56,6.37-15.33,6.49-26.34l49.52.56c-.13,11.28-1.84,22.62-5.13,33.99-3.3,11.38-7.32,20.63-12.08,27.72l27.75,27.56-34.24,34.28-27.76-26.73c-10.82,7.86-23.21,13.91-37.15,18.15-13.95,4.24-27.93,6.29-41.96,6.13-16.78-.19-32.36-3.4-46.74-9.61ZM4473.05,231.23l-63.68-62.64c-6.1,3.79-10.76,8.62-13.99,14.49-3.23,5.88-4.88,11.85-4.95,17.9-.13,11.56,4.09,21.17,12.67,28.83,8.58,7.67,19.74,11.57,33.51,11.73,12.65.14,24.8-3.29,36.44-10.32Z"/>
    <g>
      <path class="st0" d="M3200.8,398.08c25.49,0,47.31,4.57,65.46,13.71,18.14,9.14,31.86,21.61,41.14,37.4,9.28,15.79,13.92,33.39,13.92,52.78s-4.64,36.99-13.92,52.78c-9.29,15.79-23,28.26-41.14,37.4-18.15,9.14-40.1,13.71-65.87,13.71h-56.93v61.51h-58.18v-269.3h115.53ZM3244.44,540.41c10.53-10.39,15.79-23.2,15.79-38.44s-5.27-28.05-15.79-38.44c-10.53-10.39-24.1-15.58-40.73-15.58h-60.26v108.05h59.84c16.9,0,30.61-5.19,41.14-15.58Z"/>
      <path class="st0" d="M3478.83,398.08c25.77,0,47.72,4.57,65.87,13.71,18.14,9.14,31.86,21.61,41.14,37.4,9.28,15.79,13.92,33.53,13.92,53.19,0,17.73-4.43,34.22-13.3,49.45-8.87,15.24-21.47,27.29-37.82,36.16l56.1,79.38h-66.91l-41.56-63.17c-8.87,1.39-16.49,2.08-22.86,2.08h-51.95v61.09h-58.18v-269.3h115.53ZM3510.2,549.14c8.73-4.84,15.58-11.43,20.57-19.74,4.99-8.31,7.48-17.31,7.48-27.01,0-15.51-5.4-28.53-16.21-39.07-10.81-10.53-24.52-15.79-41.14-15.79h-59.43v108.88h59.01c11.08,0,20.99-2.42,29.71-7.27Z"/>
      <path class="st0" d="M3701.37,648.88c-21.75-12.33-38.72-29.16-50.91-50.49-12.19-21.33-18.29-44.74-18.29-70.23s6.09-48.83,18.29-70.03c12.19-21.2,29.16-37.95,50.91-50.29,21.75-12.32,46.2-18.49,73.35-18.49s51.6,6.17,73.35,18.49c21.75,12.33,38.71,29.09,50.91,50.29,12.19,21.19,18.29,44.54,18.29,70.03s-6.1,48.9-18.29,70.23c-12.2,21.34-29.16,38.17-50.91,50.49-21.75,12.33-46.2,18.49-73.35,18.49s-51.6-6.16-73.35-18.49ZM3816.69,603.17c12.47-7.62,22.23-18.08,29.3-31.38,7.07-13.3,10.6-27.84,10.6-43.64s-3.53-30.27-10.6-43.43c-7.06-13.16-16.83-23.55-29.3-31.17-12.47-7.62-26.32-11.43-41.56-11.43s-29.16,3.81-41.77,11.43c-12.61,7.62-22.51,18.01-29.71,31.17-7.21,13.16-10.81,27.64-10.81,43.43s3.6,30.34,10.81,43.64c7.2,13.3,17.04,23.76,29.51,31.38,12.47,7.62,26.45,11.43,41.97,11.43s29.09-3.8,41.56-11.43Z"/>
      <path class="st0" d="M4011.18,398.08l42.39,59.84c9.41,13.3,18.97,26.95,28.67,40.94,9.69,13.99,16.34,23.62,19.95,28.88l48.62-69.4,42.39-60.26h50.29v269.3h-58.18v-170.39c-1.11,1.94-3.81,6.23-8.1,12.88-4.3,6.65-9.77,14.82-16.42,24.52l-58.6,83.53-59.01-83.95c-5.82-8.03-11.01-15.72-15.58-23.06-4.57-7.34-7.42-11.98-8.52-13.92v170.39h-58.18v-269.3h50.29Z"/>
      <path class="st0" d="M4356.33,648.88c-21.75-12.33-38.72-29.16-50.91-50.49-12.19-21.33-18.29-44.74-18.29-70.23s6.09-48.83,18.29-70.03c12.19-21.2,29.16-37.95,50.91-50.29,21.75-12.32,46.2-18.49,73.35-18.49s51.6,6.17,73.35,18.49c21.75,12.33,38.71,29.09,50.91,50.29,12.19,21.19,18.29,44.54,18.29,70.03s-6.1,48.9-18.29,70.23c-12.2,21.34-29.16,38.17-50.91,50.49-21.75,12.33-46.2,18.49-73.35,18.49s-51.6-6.16-73.35-18.49ZM4471.65,603.17c12.47-7.62,22.23-18.08,29.3-31.38,7.07-13.3,10.6-27.84,10.6-43.64s-3.53-30.27-10.6-43.43c-7.06-13.16-16.83-23.55-29.3-31.17-12.47-7.62-26.32-11.43-41.56-11.43s-29.16,3.81-41.77,11.43c-12.61,7.62-22.51,18.01-29.71,31.17-7.21,13.16-10.81,27.64-10.81,43.43s3.6,30.34,10.81,43.64c7.2,13.3,17.04,23.76,29.51,31.38,12.47,7.62,26.45,11.43,41.97,11.43s29.09-3.8,41.56-11.43Z"/>
    </g>
  </g>
  <g>
    <path class="st1" d="M1178.13,275.64c-.28-1.44-.55-2.88-.89-4.37h-93.14c2.1,7.25,3.82,14.6,5.25,22.12,3.1,16.26,4.09,32.3,3.65,48.84-1.49,55.03-22.4,108.8-58.3,150.23-28.65,33.08-67.59,59.4-109.57,71.96-13.05,3.93-25.5,7.25-39.49,9.07-42.31,5.42-80.75.39-120.14-14.55-25.44-9.62-56.25-28.6-75.55-47.57l-6.69-6.58c-19.36-19.03-34.4-40.99-46.24-65.49-13.72-28.37-21.02-59.02-23.18-90.43-.5-7.25-.28-13.66-.06-20.85.61-19.36,3.43-38.39,8.63-56.75h-93.14c-.44,2.05-.83,4.09-1.27,6.2-1.77,8.79-2.49,17.09-3.48,25.94-2.21,19.36-2.16,41.54-.39,61.17,6.25,67.7,31.2,129.81,74.84,181.86,5.53,6.58,10.73,12.72,16.7,18.97,12.5,12.94,26.11,24.12,40.21,35.23,7.91,6.19,15.82,11.17,24.39,16.48,30.31,18.75,58.52,30.2,93.09,39.1,26.33,6.75,52.66,9.85,79.92,9.62,17.81-.11,34.57-.83,52.16-3.82,44.25-7.58,84.4-22.18,122.51-46.07,42.7-26.83,79.87-63.44,106.2-106.58,8.19-13.44,15.49-26.72,21.79-41.1,4.42-10.01,7.69-19.75,11.28-30.09,6.47-18.64,10.62-37.5,13.33-57.14,4.87-35.45,3.98-70.36-2.43-105.42ZM698.36,153.56c25.28-21.41,54.7-37.33,86.45-47.18,57.47-17.81,120.19-12.06,173.68,14.49,10.51,5.2,19.75,10.67,29.43,17.09,10.73,7.14,20.24,15.38,29.76,24.01h116.82c-4.37-7.14-9.02-13.88-13.88-20.13l-8.91-11.56c-19.8-25.55-45.19-48.95-71.96-67.2-11.62-7.85-22.84-14.88-35.34-21.29-50-25.72-105.2-38.05-161.29-36.62-25.33.72-49.89,4.65-74.34,10.95-9.51,2.43-17.92,5.31-27.1,8.57-15.93,5.59-30.75,12.39-45.69,20.35-13.11,6.97-24.89,14.88-36.95,23.51-18.75,13.44-33.57,27.27-49.45,44.03-11.23,11.84-20.63,24.5-29.98,37.94-2.65,3.76-5.14,7.58-7.58,11.45h116.82c3.04-2.82,6.19-5.59,9.51-8.41Z"/>
    <path class="st1" d="M47.66,475.08L0,434.61c8.21-4.48,16.21-8.38,24.54-12.4l17.17-8.29c5.1-2.46,8.3-7.93,7.46-13.9-1.05-7.44-2.95-14.37-4.88-21.7l-14.83-56.31-13.38-52.42,38.89,8.46,28.94,5.98,37.94,8.4c4.87,1.08,10.45,0,14.17-3.24,2.84-2.47,4.72-6.31,5.72-9.99l12.96-47.73c3.29,2.72,5.79,5.56,8.37,8.6l13.44,15.79,26.58,31.12,12.31,14.49,26.91,31.21c3.83,4.45,15.22,10.63,22.35,3.81,8.84-8.46,3.73-27.62,1.54-39.76l-9.97-55.34-7.92-44.28-15.99-87.7c7.55,2.8,13.46,6.19,19.86,9.64l31.28,16.91c8.83,4.77,21.73,7.33,28.86-1.91,2.28-2.96,4.16-6.41,5.9-9.85l11.97-23.71L381.95,0c4.95,7.46,8.19,14.52,12.01,21.99l28.34,55.52c.91,1.79-1.57,3.53-2.48,4.65-14.12,17.43-26.09,35.92-36.92,55.75-14.19,25.98-24.98,53.35-32.86,81.86-2.36,8.54-4.63,16.49-6.07,25.12l-2.91,17.44c-3.13,18.77-4.24,37.36-5.24,56.43-1.49,28.47,3.63,71.67,9.73,99.68,2.45,11.24,5.37,21.67,8.74,32.58,2.72,8.82,6.01,16.99,9.28,25.63,11.28,29.83,33.13,69.66,53.09,93.95l8.94,10.87c20.38,24.8,54.21,54.08,82.11,69.5l25.16,13.92c-13.26-1.03-25.32-2.79-38.3-4.35l-65.02-7.85c-8.12-.98-15.78-2.58-23.98-2.64l-46.9-.33c-3.01-.02-5.73.65-8.71,1.02l-74.11,9.05-48.02,5.9-51.47,5.94,9.24-33.49c2.4-8.69,4.84-16.82,6.93-25.65.27-8.18-2.47-16.14-8.84-21.59l-17.41-14.93-42.54-36.23-37.44-31.71-7.49-6.49-31.12-26.44Z"/>
    <path class="st1" d="M678.01,655.84l21.9,9.57c-29.92,2.05-69.36-6.19-97.18-15.87-21.41-7.47-41.32-17.09-60.57-29.04-15.49-9.62-30.09-19.8-43.25-32.3l-9.85-9.24c-29.2-27.54-53.43-61.45-70.74-97.62-7.19-15.04-13-30.14-18.25-45.96-3.71-11.06-6.19-21.85-8.63-33.35-9.24-43.59-9.46-87.67-1.38-130.76h80.75c-2.82,12.89-4.81,25.94-6.08,39.22-1.05,10.84-1.22,32.25-.61,43.31,1.55,27.71,7.41,54.26,15.93,80.59,13.77,42.42,37.78,84.35,66.21,118.48l10.12,12.17,7.25,7.91c4.09,4.54,8.02,8.68,12.56,12.89,13.94,12.78,27.77,25,43.14,36.12,16.65,12.06,39.88,25.66,58.68,33.91Z"/>
    <path class="st1" d="M700.46,6.6c-17.87,4.54-34.4,11.45-50.72,19.69-5.92,2.99-11.28,5.75-16.81,9.29l-8.46,5.48-22.29,15.87-6.53,5.42c-6.2,5.14-14.38,11.89-19.8,17.7l-3.1,3.26-14.27,14.88c-13.83,14.38-35.12,44.8-45.8,63.77h-82.08c13.05-22.07,29.76-44.14,46.02-60.45l7.63-7.63c10.12-10.18,20.69-18.97,32.19-27.6,17.26-12.89,35.34-23.56,54.87-32.85,32.19-15.32,77.27-26.99,112.67-27.54l17.37-.28c1.49.33.17.66-.89,1Z"/>
  </g>
  <g>
    <path class="st0" d="M1347.26,10.79v151.2h141.44V10.79h-141.44ZM1347.26,271.28v394.16h141.44v-394.16h-141.44Z"/>
    <path class="st0" d="M2122.67,45.64c-52.88-30-112.27-45-178.28-45s-125.45,15-178.33,45c-50.84,28.78-90.93,67.55-120.21,116.35h189.8c2.7-1.82,5.4-3.53,8.22-5.24,30.6-18.53,64.46-27.79,101.52-27.79s70.69,9.26,101.02,27.79c2.76,1.71,5.46,3.42,8.11,5.24h188.42c-29.34-48.8-69.42-87.57-120.27-116.35ZM2284.79,271.28h-151.03c6.45,21.06,9.65,43.34,9.65,66.83,0,38.38-8.6,73.73-25.75,106.04-17.2,32.37-40.92,57.79-71.24,76.26-30.33,18.58-63.97,27.79-101.02,27.79s-71.74-9.21-102.01-27.79c-30.33-18.47-54.26-43.89-71.74-76.26-17.54-32.31-26.3-67.66-26.3-106.04,0-23.49,3.25-45.77,9.82-66.83h-151.14c-4.08,21.56-6.12,43.84-6.12,66.83,0,61.93,14.78,118.83,44.44,170.72,29.61,51.89,70.86,92.75,123.74,122.75,52.88,29.94,112.32,44.94,178.33,44.94s125.39-15,178.28-44.94c52.88-30,94.13-70.86,123.79-122.75,29.61-51.89,44.44-108.8,44.44-170.72,0-22.99-2.04-45.27-6.12-66.83Z"/>
    <path class="st0" d="M2393.53,271.28v394.16h141.44v-394.16h-141.44ZM2528.9,10.79h-135.37v151.2h244.83l-109.46-151.2ZM2832.02,442.16c-4.74-8.11-15-24.92-30.82-50.51-15.83-25.59-31.49-48.86-46.98-69.7l-36.67-50.68h-162.39c3.47,5.62,7.39,11.91,11.63,18.8,16.49,26.63,33.86,52.05,52.05,76.32l218.2,299.04h136.37v-394.16h-141.38v170.89ZM2832.02,10.79v151.2h141.38V10.79h-141.38Z"/>
  </g>
</svg>